<svg width="167" height="57" viewBox="0 0 167 57" fill="none" xmlns="http://www.w3.org/2000/svg">
<path d="M55.2405 27C54.1525 27 53.2965 26.688 52.6725 26.064C52.0645 25.44 51.7605 24.592 51.7605 23.52V11.688H53.9685V23.376C53.9685 23.904 54.1125 24.328 54.4005 24.648C54.7045 24.952 55.1205 25.104 55.6485 25.104H58.1205V27H55.2405ZM49.6485 16.656V14.76H58.1685V16.656H49.6485ZM66.3909 27C65.1269 27 63.9989 26.728 63.0069 26.184C62.0149 25.64 61.2309 24.912 60.6549 24C60.0789 23.072 59.7909 22.032 59.7909 20.88C59.7909 19.728 60.0789 18.696 60.6549 17.784C61.2309 16.856 62.0149 16.12 63.0069 15.576C63.9989 15.032 65.1269 14.76 66.3909 14.76H67.8309V16.656H66.3189C65.5029 16.656 64.7669 16.848 64.1109 17.232C63.4709 17.6 62.9589 18.104 62.5749 18.744C62.2069 19.384 62.0229 20.096 62.0229 20.88C62.0229 21.664 62.2069 22.376 62.5749 23.016C62.9589 23.656 63.4709 24.168 64.1109 24.552C64.7669 24.92 65.5029 25.104 66.3189 25.104H67.8309V27H66.3909ZM70.3536 27V9.48H72.5616V16.344C73.0576 15.704 73.6576 15.232 74.3616 14.928C75.0816 14.624 75.8256 14.472 76.5936 14.472C77.6816 14.472 78.6256 14.704 79.4256 15.168C80.2256 15.616 80.8496 16.248 81.2976 17.064C81.7456 17.88 81.9696 18.832 81.9696 19.92V27H79.7616V19.944C79.7616 19.208 79.5936 18.576 79.2576 18.048C78.9216 17.504 78.4736 17.088 77.9136 16.8C77.3696 16.512 76.7856 16.368 76.1616 16.368C75.5376 16.368 74.9536 16.512 74.4096 16.8C73.8656 17.072 73.4176 17.472 73.0656 18C72.7296 18.528 72.5616 19.16 72.5616 19.896V27H70.3536ZM91.6628 27.288C90.4788 27.288 89.4148 27.032 88.4708 26.52C87.5268 26.008 86.7748 25.272 86.2148 24.312C85.6708 23.336 85.3988 22.168 85.3988 20.808V9.48H87.6068V16.944H87.6548C87.9268 16.448 88.2788 16.016 88.7108 15.648C89.1588 15.28 89.6628 14.992 90.2228 14.784C90.7988 14.576 91.3988 14.472 92.0228 14.472C93.1588 14.472 94.1748 14.728 95.0708 15.24C95.9668 15.752 96.6708 16.48 97.1828 17.424C97.7108 18.352 97.9748 19.456 97.9748 20.736C97.9748 21.744 97.8148 22.656 97.4948 23.472C97.1908 24.272 96.7588 24.96 96.1988 25.536C95.6388 26.112 94.9748 26.552 94.2068 26.856C93.4388 27.144 92.5908 27.288 91.6628 27.288ZM91.6628 25.392C92.4148 25.392 93.0948 25.208 93.7028 24.84C94.3268 24.472 94.8228 23.952 95.1908 23.28C95.5588 22.608 95.7428 21.808 95.7428 20.88C95.7428 19.984 95.5588 19.2 95.1908 18.528C94.8388 17.856 94.3588 17.328 93.7508 16.944C93.1428 16.56 92.4548 16.368 91.6868 16.368C90.9348 16.368 90.2468 16.552 89.6228 16.92C89.0148 17.288 88.5268 17.816 88.1588 18.504C87.8068 19.176 87.6308 19.976 87.6308 20.904C87.6308 21.816 87.8068 22.608 88.1588 23.28C88.5268 23.952 89.0148 24.472 89.6228 24.84C90.2468 25.208 90.9268 25.392 91.6628 25.392ZM106.559 27.288C105.311 27.288 104.207 27.008 103.247 26.448C102.287 25.872 101.527 25.104 100.967 24.144C100.407 23.168 100.127 22.08 100.127 20.88C100.127 19.68 100.407 18.6 100.967 17.64C101.527 16.664 102.287 15.896 103.247 15.336C104.207 14.76 105.311 14.472 106.559 14.472C107.807 14.472 108.911 14.76 109.871 15.336C110.847 15.896 111.607 16.656 112.151 17.616C112.711 18.576 112.991 19.664 112.991 20.88C112.991 22.08 112.711 23.168 112.151 24.144C111.607 25.104 110.847 25.872 109.871 26.448C108.911 27.008 107.807 27.288 106.559 27.288ZM106.559 25.392C107.407 25.392 108.143 25.192 108.767 24.792C109.391 24.392 109.879 23.856 110.231 23.184C110.583 22.496 110.759 21.728 110.759 20.88C110.759 20.032 110.583 19.272 110.231 18.6C109.879 17.912 109.391 17.368 108.767 16.968C108.143 16.568 107.407 16.368 106.559 16.368C105.727 16.368 104.991 16.568 104.351 16.968C103.727 17.368 103.239 17.912 102.887 18.6C102.535 19.272 102.359 20.032 102.359 20.88C102.359 21.728 102.535 22.496 102.887 23.184C103.239 23.856 103.727 24.392 104.351 24.792C104.991 25.192 105.727 25.392 106.559 25.392ZM120.91 27.288C119.726 27.288 118.702 27.008 117.838 26.448C116.974 25.872 116.31 25.096 115.846 24.12C115.382 23.144 115.15 22.064 115.15 20.88C115.15 19.68 115.406 18.6 115.918 17.64C116.43 16.664 117.166 15.896 118.126 15.336C119.086 14.76 120.238 14.472 121.582 14.472C122.878 14.472 123.99 14.752 124.918 15.312C125.846 15.872 126.558 16.632 127.054 17.592C127.566 18.552 127.822 19.624 127.822 20.808V27H125.59V24.504H125.542C125.302 24.968 124.974 25.416 124.558 25.848C124.158 26.264 123.654 26.608 123.046 26.88C122.438 27.152 121.726 27.288 120.91 27.288ZM121.486 25.392C122.286 25.392 122.99 25.2 123.598 24.816C124.222 24.416 124.702 23.872 125.038 23.184C125.39 22.48 125.566 21.696 125.566 20.832C125.566 19.984 125.398 19.224 125.062 18.552C124.742 17.88 124.278 17.352 123.67 16.968C123.062 16.568 122.35 16.368 121.534 16.368C120.67 16.368 119.926 16.568 119.302 16.968C118.694 17.368 118.222 17.912 117.886 18.6C117.566 19.272 117.406 20.04 117.406 20.904C117.406 21.736 117.566 22.496 117.886 23.184C118.206 23.856 118.67 24.392 119.278 24.792C119.886 25.192 120.622 25.392 121.486 25.392ZM131.266 27V18.24C131.266 17.152 131.57 16.304 132.178 15.696C132.802 15.072 133.658 14.76 134.746 14.76H137.266V16.656H135.154C134.626 16.656 134.21 16.808 133.906 17.112C133.618 17.416 133.474 17.84 133.474 18.384V27H131.266ZM144.947 27.288C144.019 27.288 143.171 27.144 142.403 26.856C141.635 26.552 140.971 26.112 140.411 25.536C139.851 24.96 139.411 24.272 139.091 23.472C138.787 22.656 138.635 21.744 138.635 20.736C138.635 19.456 138.891 18.352 139.403 17.424C139.931 16.48 140.643 15.752 141.539 15.24C142.451 14.728 143.467 14.472 144.587 14.472C145.211 14.472 145.803 14.576 146.363 14.784C146.939 14.992 147.451 15.28 147.899 15.648C148.347 16.016 148.699 16.448 148.955 16.944H149.003V9.48H151.211V20.808C151.211 22.168 150.931 23.336 150.371 24.312C149.827 25.272 149.083 26.008 148.139 26.52C147.211 27.032 146.147 27.288 144.947 27.288ZM144.947 25.392C145.699 25.392 146.379 25.208 146.987 24.84C147.595 24.472 148.075 23.952 148.427 23.28C148.795 22.608 148.979 21.816 148.979 20.904C148.979 19.976 148.795 19.176 148.427 18.504C148.075 17.816 147.595 17.288 146.987 16.92C146.379 16.552 145.691 16.368 144.923 16.368C144.171 16.368 143.483 16.56 142.859 16.944C142.251 17.328 141.763 17.856 141.395 18.528C141.043 19.2 140.867 19.984 140.867 20.88C140.867 21.808 141.051 22.608 141.419 23.28C141.787 23.952 142.275 24.472 142.883 24.84C143.507 25.208 144.195 25.392 144.947 25.392Z" fill="#13111D"/>
<path d="M1.584 27V25.104H7.44C7.824 25.104 8.152 25.024 8.424 24.864C8.712 24.688 8.928 24.464 9.072 24.192C9.216 23.92 9.288 23.632 9.288 23.328C9.288 23.04 9.224 22.776 9.096 22.536C8.968 22.28 8.768 22.08 8.496 21.936C8.24 21.776 7.928 21.696 7.56 21.696H5.088C4.304 21.696 3.616 21.568 3.024 21.312C2.448 21.04 1.992 20.648 1.656 20.136C1.336 19.624 1.176 19 1.176 18.264C1.176 17.64 1.328 17.064 1.632 16.536C1.936 16.008 2.36 15.584 2.904 15.264C3.448 14.928 4.072 14.76 4.776 14.76H10.416V16.656H4.992C4.496 16.656 4.104 16.808 3.816 17.112C3.528 17.416 3.384 17.776 3.384 18.192C3.384 18.592 3.528 18.944 3.816 19.248C4.12 19.536 4.544 19.68 5.088 19.68H7.44C8.32 19.68 9.056 19.824 9.648 20.112C10.256 20.384 10.712 20.784 11.016 21.312C11.336 21.84 11.496 22.488 11.496 23.256C11.496 23.912 11.336 24.528 11.016 25.104C10.696 25.664 10.248 26.12 9.672 26.472C9.112 26.824 8.456 27 7.704 27H1.584ZM18.5123 27.288C17.7443 27.288 17.0483 27.144 16.4243 26.856C15.8163 26.552 15.3283 26.088 14.9603 25.464C14.5923 24.824 14.4083 24.008 14.4083 23.016V14.76H16.6163V23.4C16.6163 23.832 16.7043 24.2 16.8803 24.504C17.0563 24.808 17.2883 25.032 17.5763 25.176C17.8643 25.32 18.1683 25.392 18.4883 25.392C18.8083 25.392 19.1123 25.32 19.4003 25.176C19.6883 25.016 19.9203 24.792 20.0963 24.504C20.2883 24.2 20.3843 23.832 20.3843 23.4V18.648C20.3843 17.704 20.5603 16.928 20.9123 16.32C21.2643 15.696 21.7443 15.232 22.3523 14.928C22.9603 14.624 23.6483 14.472 24.4163 14.472C25.1843 14.472 25.8723 14.624 26.4803 14.928C27.0883 15.232 27.5683 15.696 27.9203 16.32C28.2723 16.928 28.4483 17.704 28.4483 18.648V23.4C28.4483 23.832 28.5363 24.2 28.7123 24.504C28.8883 24.792 29.1203 25.016 29.4083 25.176C29.6963 25.32 30.0083 25.392 30.3443 25.392C30.6803 25.392 30.9843 25.32 31.2563 25.176C31.5283 25.016 31.7523 24.792 31.9283 24.504C32.1043 24.2 32.1923 23.832 32.1923 23.4V14.76H34.4243V23.016C34.4243 24.008 34.2403 24.824 33.8723 25.464C33.5043 26.088 33.0083 26.552 32.3843 26.856C31.7763 27.144 31.0963 27.288 30.3443 27.288C29.6083 27.288 28.9283 27.144 28.3043 26.856C27.6803 26.552 27.1763 26.088 26.7923 25.464C26.4243 24.824 26.2403 24.008 26.2403 23.016V18.312C26.2403 17.864 26.1523 17.496 25.9763 17.208C25.8003 16.92 25.5763 16.712 25.3043 16.584C25.0323 16.44 24.7363 16.368 24.4163 16.368C24.0963 16.368 23.7923 16.44 23.5043 16.584C23.2323 16.712 23.0083 16.92 22.8323 17.208C22.6723 17.496 22.5923 17.864 22.5923 18.312V23.016C22.5923 24.008 22.4003 24.824 22.0163 25.464C21.6483 26.088 21.1523 26.552 20.5283 26.856C19.9203 27.144 19.2483 27.288 18.5123 27.288Z" fill="#13111D"/>
<g filter="url(#filter0_d_148_2)">
<path d="M41 26C41 27.1046 41.8954 28 43 28C44.1046 28 45 27.1046 45 26C45 24.8954 44.1046 24 43 24C41.8954 24 41 24.8954 41 26Z" fill="#A60321"/>
</g>
<path d="M43.3233 11C43.433 11.0015 43.5384 11.0422 43.5222 11.1667C43.4362 11.8277 43.7915 12.4149 43.8007 13.0643C43.8156 14.1127 43.95 15.1538 44.0647 16.195C44.0851 16.3796 44.1248 16.5774 44.212 16.7362C44.6895 17.6057 44.6546 18.6013 44.8822 19.5314C45.0667 20.2851 45.048 21.0225 44.7294 21.7445C44.3159 22.6817 43.0148 23.2556 42.0883 22.8872C41.4009 22.614 41.2297 21.9793 41.0724 21.3311C40.8764 20.5239 41.1249 19.7572 41.2681 18.9847C41.515 17.652 41.8483 16.3332 41.8056 14.96C41.8011 14.8163 41.8303 14.6841 41.9279 14.5755C41.9794 14.5182 42.0161 14.457 42.0105 14.3741C41.9507 13.488 42.1953 12.6395 42.3304 11.7794C42.3941 11.3736 42.6754 11.2619 43.0799 11.4022C43.1396 11.301 43.2019 11.1954 43.2809 11.0558C43.2977 11.0218 43.3233 11 43.3233 11ZM42.3914 21.5377C42.5388 21.567 42.6754 21.707 42.9135 21.5869C42.6396 21.4622 42.435 21.3709 42.1883 21.451C42.2405 21.4752 42.2928 21.4994 42.3914 21.5377ZM42.183 20.5199C42.2403 20.5962 42.2453 20.7217 42.4015 20.7761C42.3173 20.5186 42.2739 20.2981 42.0991 20.0971C42.0488 20.277 42.1336 20.3682 42.183 20.5199ZM42.8302 20.4376C42.9599 20.2423 42.9078 20.0709 42.7907 19.9078C42.7396 20.0839 42.7111 20.2566 42.8302 20.4376ZM43.408 20.1868C43.4257 20.0723 43.4435 19.9579 43.4612 19.8435C43.319 20.0449 43.2304 20.2558 43.3024 20.5089C43.3333 20.4182 43.3642 20.3275 43.408 20.1868Z" fill="url(#paint0_linear_148_2)"/>
<path d="M2.132 36.458L2.63 35H2.6L2.336 32H2.72C2.748 32.428 2.774 32.792 2.798 33.092C2.822 33.388 2.844 33.632 2.864 33.824C2.884 34.044 2.904 34.226 2.924 34.37H2.93C2.942 34.346 2.968 34.282 3.008 34.178C3.052 34.074 3.116 33.926 3.2 33.734C3.284 33.542 3.39 33.304 3.518 33.02C3.65 32.732 3.806 32.392 3.986 32H4.376L3.044 35H3.008C2.928 35.24 2.844 35.482 2.756 35.726C2.672 35.974 2.592 36.218 2.516 36.458H2.132ZM11.4673 32.852C11.4873 32.732 11.4813 32.638 11.4493 32.57C11.4213 32.498 11.3793 32.444 11.3233 32.408C11.2713 32.368 11.2113 32.342 11.1433 32.33C11.0793 32.318 11.0233 32.312 10.9753 32.312C10.9273 32.312 10.8673 32.318 10.7953 32.33C10.7273 32.342 10.6593 32.368 10.5913 32.408C10.5233 32.444 10.4613 32.498 10.4053 32.57C10.3493 32.638 10.3113 32.732 10.2913 32.852L10.0633 34.118C10.0433 34.238 10.0473 34.334 10.0753 34.406C10.1073 34.478 10.1513 34.534 10.2073 34.574C10.2633 34.61 10.3233 34.636 10.3873 34.652C10.4553 34.664 10.5133 34.67 10.5613 34.67C10.6093 34.67 10.6673 34.664 10.7353 34.652C10.8033 34.636 10.8713 34.61 10.9393 34.574C11.0073 34.534 11.0693 34.478 11.1253 34.406C11.1813 34.334 11.2193 34.238 11.2393 34.118L11.4673 32.852ZM11.5813 34.16C11.5493 34.348 11.4873 34.5 11.3953 34.616C11.3073 34.728 11.2093 34.816 11.1013 34.88C10.9933 34.944 10.8833 34.986 10.7713 35.006C10.6633 35.026 10.5713 35.036 10.4953 35.036C10.4193 35.036 10.3293 35.026 10.2253 35.006C10.1213 34.986 10.0253 34.944 9.9373 34.88C9.8533 34.816 9.7873 34.728 9.7393 34.616C9.6913 34.5 9.6833 34.348 9.7153 34.16L9.9553 32.81C9.9873 32.622 10.0473 32.472 10.1353 32.36C10.2273 32.244 10.3273 32.156 10.4353 32.096C10.5433 32.032 10.6513 31.99 10.7593 31.97C10.8713 31.95 10.9653 31.94 11.0413 31.94C11.1173 31.94 11.2053 31.95 11.3053 31.97C11.4093 31.99 11.5053 32.032 11.5933 32.096C11.6813 32.156 11.7493 32.244 11.7973 32.36C11.8453 32.472 11.8533 32.622 11.8213 32.81L11.5813 34.16ZM17.5631 34.544C17.5311 34.44 17.5191 34.338 17.5271 34.238C17.5351 34.138 17.5491 34.034 17.5691 33.926L17.9111 32H18.2951L17.9231 34.106C17.8911 34.29 17.9151 34.432 17.9951 34.532C18.0791 34.628 18.1811 34.676 18.3011 34.676C18.4171 34.676 18.5371 34.656 18.6611 34.616C18.7851 34.572 18.8871 34.528 18.9671 34.484L19.4051 32H19.7831L19.3151 34.652L19.4411 34.79L19.1231 35.06L18.9731 34.88C18.8531 34.936 18.7251 34.978 18.5891 35.006C18.4571 35.034 18.3411 35.048 18.2411 35.048C18.1691 35.048 18.0971 35.038 18.0251 35.018C17.9531 35.002 17.8871 34.974 17.8271 34.934C17.7671 34.894 17.7131 34.842 17.6651 34.778C17.6211 34.714 17.5871 34.636 17.5631 34.544ZM34.0193 32.45C34.0513 32.554 34.0613 32.656 34.0493 32.756C34.0413 32.856 34.0273 32.96 34.0073 33.068L33.6713 35H33.2813L33.6533 32.888C33.6813 32.704 33.6553 32.564 33.5753 32.468C33.4953 32.368 33.3953 32.318 33.2753 32.318C33.2073 32.318 33.1173 32.328 33.0053 32.348C32.8973 32.364 32.7673 32.418 32.6153 32.51L32.1773 35H31.7993L32.2673 32.342L32.1473 32.204L32.4593 31.934L32.6093 32.114C32.8373 32.002 33.0473 31.946 33.2393 31.946C33.3273 31.946 33.4133 31.956 33.4973 31.976C33.5853 31.992 33.6633 32.02 33.7313 32.06C33.7993 32.1 33.8573 32.152 33.9053 32.216C33.9573 32.28 33.9953 32.358 34.0193 32.45ZM41.2531 33.542C41.2531 33.538 41.2371 33.528 41.2051 33.512C41.1771 33.492 41.1351 33.472 41.0791 33.452C41.0271 33.432 40.9651 33.414 40.8931 33.398C40.8211 33.382 40.7431 33.374 40.6591 33.374C40.5991 33.374 40.5391 33.388 40.4791 33.416C40.4231 33.44 40.3711 33.474 40.3231 33.518C40.2751 33.558 40.2351 33.606 40.2031 33.662C40.1711 33.718 40.1491 33.776 40.1371 33.836L40.0711 34.208C40.0471 34.336 40.0691 34.446 40.1371 34.538C40.2091 34.626 40.3051 34.67 40.4251 34.67C40.4691 34.67 40.5291 34.66 40.6051 34.64C40.6811 34.62 40.7551 34.598 40.8271 34.574C40.9111 34.546 40.9991 34.512 41.0911 34.472L41.2531 33.542ZM41.4391 34.658L41.5471 34.778L41.2291 35.048L41.0971 34.886C40.9611 34.946 40.8231 34.99 40.6831 35.018C40.5431 35.046 40.4371 35.06 40.3651 35.06C40.2491 35.06 40.1451 35.038 40.0531 34.994C39.9611 34.946 39.8851 34.882 39.8251 34.802C39.7651 34.722 39.7231 34.63 39.6991 34.526C39.6791 34.418 39.6791 34.304 39.6991 34.184L39.7591 33.854C39.7791 33.738 39.8191 33.628 39.8791 33.524C39.9391 33.42 40.0131 33.33 40.1011 33.254C40.1891 33.174 40.2851 33.112 40.3891 33.068C40.4971 33.02 40.6091 32.996 40.7251 32.996C40.7491 32.996 40.7851 32.998 40.8331 33.002C40.8851 33.002 40.9391 33.008 40.9951 33.02C41.0551 33.028 41.1151 33.042 41.1751 33.062C41.2351 33.078 41.2891 33.1 41.3371 33.128L41.3551 33.002C41.3711 32.918 41.3711 32.834 41.3551 32.75C41.3391 32.666 41.3111 32.592 41.2711 32.528C41.2311 32.464 41.1791 32.412 41.1151 32.372C41.0511 32.332 40.9811 32.312 40.9051 32.312C40.8771 32.312 40.8191 32.322 40.7311 32.342C40.6431 32.362 40.5531 32.382 40.4611 32.402C40.3531 32.43 40.2331 32.46 40.1011 32.492L40.0651 32.132C40.2051 32.096 40.3351 32.064 40.4551 32.036C40.5591 32.012 40.6591 31.99 40.7551 31.97C40.8551 31.95 40.9271 31.94 40.9711 31.94C41.0991 31.94 41.2151 31.97 41.3191 32.03C41.4231 32.09 41.5091 32.17 41.5771 32.27C41.6451 32.37 41.6911 32.484 41.7151 32.612C41.7431 32.736 41.7451 32.866 41.7211 33.002L41.4391 34.658ZM49.2588 32.762C49.2708 32.702 49.2648 32.646 49.2408 32.594C49.2208 32.538 49.1868 32.49 49.1388 32.45C49.0948 32.41 49.0428 32.38 48.9828 32.36C48.9228 32.336 48.8588 32.324 48.7908 32.324C48.7588 32.324 48.7168 32.33 48.6648 32.342C48.6128 32.35 48.5568 32.364 48.4968 32.384C48.4408 32.4 48.3848 32.42 48.3288 32.444C48.2768 32.464 48.2328 32.486 48.1968 32.51L47.7588 35H47.3808L47.8488 32.336L47.7228 32.192L48.0408 31.928L48.1848 32.114C48.2968 32.058 48.4048 32.016 48.5088 31.988C48.6168 31.956 48.7208 31.94 48.8208 31.94C48.9888 31.94 49.1388 31.974 49.2708 32.042C49.4068 32.11 49.4988 32.212 49.5468 32.348C49.6948 32.184 49.8488 32.076 50.0088 32.024C50.1728 31.968 50.3248 31.94 50.4648 31.94C50.6128 31.94 50.7328 31.972 50.8248 32.036C50.9208 32.096 50.9928 32.174 51.0408 32.27C51.0888 32.366 51.1168 32.47 51.1248 32.582C51.1368 32.69 51.1348 32.792 51.1188 32.888L50.7468 35H50.3628L50.7348 32.888C50.7468 32.82 50.7508 32.754 50.7468 32.69C50.7428 32.622 50.7268 32.562 50.6988 32.51C50.6748 32.454 50.6368 32.41 50.5848 32.378C50.5328 32.342 50.4648 32.324 50.3808 32.324C50.1528 32.324 49.9748 32.39 49.8468 32.522C49.7188 32.65 49.6328 32.834 49.5888 33.074L49.2528 35H48.8688L49.2588 32.762ZM58.0045 33.512C58.0645 33.512 58.1245 33.5 58.1845 33.476C58.2445 33.448 58.2985 33.412 58.3465 33.368C58.3945 33.32 58.4345 33.268 58.4665 33.212C58.5025 33.152 58.5265 33.09 58.5385 33.026L58.5805 32.78C58.5965 32.696 58.5925 32.626 58.5685 32.57C58.5445 32.51 58.5085 32.462 58.4605 32.426C58.4125 32.39 58.3545 32.364 58.2865 32.348C58.2185 32.332 58.1465 32.324 58.0705 32.324C57.9345 32.324 57.8065 32.366 57.6865 32.45C57.5705 32.53 57.5005 32.64 57.4765 32.78L57.3445 33.506L58.0045 33.512ZM57.0805 32.81C57.1005 32.69 57.1405 32.578 57.2005 32.474C57.2645 32.366 57.3405 32.274 57.4285 32.198C57.5205 32.118 57.6205 32.056 57.7285 32.012C57.8405 31.964 57.9545 31.94 58.0705 31.94H58.2685C58.3845 31.94 58.4885 31.962 58.5805 32.006C58.6765 32.05 58.7545 32.112 58.8145 32.192C58.8785 32.268 58.9225 32.36 58.9465 32.468C58.9745 32.572 58.9785 32.686 58.9585 32.81L58.9225 33.002C58.8905 33.174 58.8345 33.318 58.7545 33.434C58.6745 33.55 58.5745 33.644 58.4545 33.716C58.3385 33.788 58.2065 33.84 58.0585 33.872C57.9145 33.904 57.7645 33.92 57.6085 33.92C57.4965 33.92 57.3865 33.914 57.2785 33.902L57.2245 34.202C57.2285 34.342 57.2765 34.456 57.3685 34.544C57.4645 34.632 57.5825 34.676 57.7225 34.676C57.7305 34.676 57.7785 34.668 57.8665 34.652C57.9545 34.632 58.0505 34.61 58.1545 34.586C58.2745 34.562 58.4085 34.532 58.5565 34.496L58.5865 34.892C58.4305 34.924 58.2865 34.952 58.1545 34.976C58.0425 34.996 57.9365 35.014 57.8365 35.03C57.7365 35.046 57.6765 35.054 57.6565 35.054C57.5245 35.054 57.4025 35.03 57.2905 34.982C57.1825 34.934 57.0925 34.868 57.0205 34.784C56.9485 34.7 56.8965 34.6 56.8645 34.484C56.8325 34.368 56.8285 34.24 56.8525 34.1L57.0805 32.81ZM71.7339 30.83H72.1299L72.0339 31.37H71.6379L71.7339 30.83ZM71.5299 32H71.9259L71.3979 35H71.0019L71.5299 32ZM78.1206 32.366H77.6226L77.6886 31.994H78.1866L78.3906 30.83H78.7806L78.5766 31.994H79.1106L79.0446 32.366H78.5106L78.1806 34.232C78.1566 34.376 78.1746 34.476 78.2346 34.532C78.2986 34.584 78.3806 34.61 78.4806 34.61H78.6486L78.5766 35.006H78.3786C78.2746 35.006 78.1806 34.992 78.0966 34.964C78.0166 34.932 77.9486 34.884 77.8926 34.82C77.8406 34.752 77.8046 34.668 77.7846 34.568C77.7686 34.468 77.7726 34.346 77.7966 34.202L78.1206 32.366ZM84.8248 34.676C84.7848 34.904 84.7008 35.088 84.5728 35.228C84.4488 35.372 84.2928 35.478 84.1048 35.546L84.0688 35.126C84.1408 35.094 84.2088 35.044 84.2728 34.976C84.3328 34.908 84.3748 34.808 84.3988 34.676L84.4588 34.334H84.8848L84.8248 34.676ZM99.2708 32.006L99.2288 34.55L100.045 32H100.423L99.4148 35H98.9108L98.8988 32.474C98.7468 32.89 98.5968 33.312 98.4488 33.74C98.3048 34.168 98.1568 34.588 98.0048 35H97.5128L97.5608 32H97.9328L97.8248 34.55L98.6948 32.006H99.2708ZM106.976 33.512C107.036 33.512 107.096 33.5 107.156 33.476C107.216 33.448 107.27 33.412 107.318 33.368C107.366 33.32 107.406 33.268 107.438 33.212C107.474 33.152 107.498 33.09 107.51 33.026L107.552 32.78C107.568 32.696 107.564 32.626 107.54 32.57C107.516 32.51 107.48 32.462 107.432 32.426C107.384 32.39 107.326 32.364 107.258 32.348C107.19 32.332 107.118 32.324 107.042 32.324C106.906 32.324 106.778 32.366 106.658 32.45C106.542 32.53 106.472 32.64 106.448 32.78L106.316 33.506L106.976 33.512ZM106.052 32.81C106.072 32.69 106.112 32.578 106.172 32.474C106.236 32.366 106.312 32.274 106.4 32.198C106.492 32.118 106.592 32.056 106.7 32.012C106.812 31.964 106.926 31.94 107.042 31.94H107.24C107.356 31.94 107.46 31.962 107.552 32.006C107.648 32.05 107.726 32.112 107.786 32.192C107.85 32.268 107.894 32.36 107.918 32.468C107.946 32.572 107.95 32.686 107.93 32.81L107.894 33.002C107.862 33.174 107.806 33.318 107.726 33.434C107.646 33.55 107.546 33.644 107.426 33.716C107.31 33.788 107.178 33.84 107.03 33.872C106.886 33.904 106.736 33.92 106.58 33.92C106.468 33.92 106.358 33.914 106.25 33.902L106.196 34.202C106.2 34.342 106.248 34.456 106.34 34.544C106.436 34.632 106.554 34.676 106.694 34.676C106.702 34.676 106.75 34.668 106.838 34.652C106.926 34.632 107.022 34.61 107.126 34.586C107.246 34.562 107.38 34.532 107.528 34.496L107.558 34.892C107.402 34.924 107.258 34.952 107.126 34.976C107.014 34.996 106.908 35.014 106.808 35.03C106.708 35.046 106.648 35.054 106.628 35.054C106.496 35.054 106.374 35.03 106.262 34.982C106.154 34.934 106.064 34.868 105.992 34.784C105.92 34.7 105.868 34.6 105.836 34.484C105.804 34.368 105.8 34.24 105.824 34.1L106.052 32.81ZM121.798 32.516C121.694 32.444 121.584 32.394 121.468 32.366C121.356 32.338 121.27 32.324 121.21 32.324C121.15 32.324 121.09 32.336 121.03 32.36C120.974 32.384 120.922 32.418 120.874 32.462C120.826 32.502 120.784 32.552 120.748 32.612C120.716 32.668 120.694 32.728 120.682 32.792L120.436 34.214C120.412 34.342 120.434 34.452 120.502 34.544C120.574 34.632 120.67 34.676 120.79 34.676C120.826 34.676 120.876 34.672 120.94 34.664C121.004 34.652 121.07 34.638 121.138 34.622C121.206 34.606 121.268 34.588 121.324 34.568C121.384 34.544 121.426 34.518 121.45 34.49L121.798 32.516ZM122.104 30.836H122.476L121.798 34.664L121.924 34.808L121.606 35.072L121.462 34.892C121.33 34.952 121.194 34.994 121.054 35.018C120.918 35.042 120.81 35.054 120.73 35.054C120.614 35.054 120.51 35.032 120.418 34.988C120.33 34.944 120.256 34.884 120.196 34.808C120.136 34.728 120.094 34.636 120.07 34.532C120.046 34.424 120.044 34.31 120.064 34.19L120.31 32.81C120.33 32.69 120.37 32.578 120.43 32.474C120.49 32.37 120.564 32.28 120.652 32.204C120.74 32.124 120.836 32.062 120.94 32.018C121.048 31.97 121.16 31.946 121.276 31.946C121.336 31.946 121.42 31.954 121.528 31.97C121.636 31.982 121.754 32.022 121.882 32.09L122.104 30.836ZM129.609 32.852C129.629 32.732 129.623 32.638 129.591 32.57C129.563 32.498 129.521 32.444 129.465 32.408C129.413 32.368 129.353 32.342 129.285 32.33C129.221 32.318 129.165 32.312 129.117 32.312C129.069 32.312 129.009 32.318 128.937 32.33C128.869 32.342 128.801 32.368 128.733 32.408C128.665 32.444 128.603 32.498 128.547 32.57C128.491 32.638 128.453 32.732 128.433 32.852L128.205 34.118C128.185 34.238 128.189 34.334 128.217 34.406C128.249 34.478 128.293 34.534 128.349 34.574C128.405 34.61 128.465 34.636 128.529 34.652C128.597 34.664 128.655 34.67 128.703 34.67C128.751 34.67 128.809 34.664 128.877 34.652C128.945 34.636 129.013 34.61 129.081 34.574C129.149 34.534 129.211 34.478 129.267 34.406C129.323 34.334 129.361 34.238 129.381 34.118L129.609 32.852ZM129.723 34.16C129.691 34.348 129.629 34.5 129.537 34.616C129.449 34.728 129.351 34.816 129.243 34.88C129.135 34.944 129.025 34.986 128.913 35.006C128.805 35.026 128.713 35.036 128.637 35.036C128.561 35.036 128.471 35.026 128.367 35.006C128.263 34.986 128.167 34.944 128.079 34.88C127.995 34.816 127.929 34.728 127.881 34.616C127.833 34.5 127.825 34.348 127.857 34.16L128.097 32.81C128.129 32.622 128.189 32.472 128.277 32.36C128.369 32.244 128.469 32.156 128.577 32.096C128.685 32.032 128.793 31.99 128.901 31.97C129.013 31.95 129.107 31.94 129.183 31.94C129.259 31.94 129.347 31.95 129.447 31.97C129.551 31.99 129.647 32.032 129.735 32.096C129.823 32.156 129.891 32.244 129.939 32.36C129.987 32.472 129.995 32.622 129.963 32.81L129.723 34.16ZM142.798 30.83H143.194L143.098 31.37H142.702L142.798 30.83ZM142.594 32H142.99L142.462 35H142.066L142.594 32ZM149.184 32.366H148.686L148.752 31.994H149.25L149.454 30.83H149.844L149.64 31.994H150.174L150.108 32.366H149.574L149.244 34.232C149.22 34.376 149.238 34.476 149.298 34.532C149.362 34.584 149.444 34.61 149.544 34.61H149.712L149.64 35.006H149.442C149.338 35.006 149.244 34.992 149.16 34.964C149.08 34.932 149.012 34.884 148.956 34.82C148.904 34.752 148.868 34.668 148.848 34.568C148.832 34.468 148.836 34.346 148.86 34.202L149.184 32.366Z" fill="black"/>
<defs>
<filter id="filter0_d_148_2" x="20" y="3" width="54" height="54" filterUnits="userSpaceOnUse" color-interpolation-filters="sRGB">
<feFlood flood-opacity="0" result="BackgroundImageFix"/>
<feColorMatrix in="SourceAlpha" type="matrix" values="0 0 0 0 0 0 0 0 0 0 0 0 0 0 0 0 0 0 127 0" result="hardAlpha"/>
<feOffset dx="4" dy="4"/>
<feGaussianBlur stdDeviation="12.5"/>
<feComposite in2="hardAlpha" operator="out"/>
<feColorMatrix type="matrix" values="0 0 0 0 0 0 0 0 0 0 0 0 0 0 0 0 0 0 0.25 0"/>
<feBlend mode="normal" in2="BackgroundImageFix" result="effect1_dropShadow_148_2"/>
<feBlend mode="normal" in="SourceGraphic" in2="effect1_dropShadow_148_2" result="shape"/>
</filter>
<linearGradient id="paint0_linear_148_2" x1="43" y1="11" x2="43" y2="23" gradientUnits="userSpaceOnUse">
<stop offset="0.385417" stop-color="#D90416"/>
<stop offset="1" stop-color="#A60321"/>
</linearGradient>
</defs>
</svg>
