<svg width="100" height="100" viewBox="0 0 100 100" fill="none" xmlns="http://www.w3.org/2000/svg">
<path d="M15.3792 26.2165C21.225 19.879 30.0708 16.6665 41.6667 16.6665H45.8333V28.4123L42.4833 29.0832C36.775 30.2248 32.8042 32.4707 30.6792 35.7665C29.5704 37.542 28.9415 39.575 28.8542 41.6665H41.6667C42.7717 41.6665 43.8315 42.1055 44.6129 42.8869C45.3943 43.6683 45.8333 44.7281 45.8333 45.8332V74.9998C45.8333 79.5957 42.0958 83.3332 37.5 83.3332H12.5C11.3949 83.3332 10.3351 82.8942 9.55372 82.1128C8.77231 81.3314 8.33333 80.2716 8.33333 79.1665V58.3332L8.34583 46.1707C8.30833 45.7082 7.51666 34.7498 15.3792 26.2165ZM83.3333 83.3332H58.3333C57.2283 83.3332 56.1685 82.8942 55.3871 82.1128C54.6057 81.3314 54.1667 80.2716 54.1667 79.1665V58.3332L54.1792 46.1707C54.1417 45.7082 53.35 34.7498 61.2125 26.2165C67.0583 19.879 75.9042 16.6665 87.5 16.6665H91.6667V28.4123L88.3167 29.0832C82.6083 30.2248 78.6375 32.4707 76.5125 35.7665C75.4037 37.542 74.7749 39.575 74.6875 41.6665H87.5C88.6051 41.6665 89.6649 42.1055 90.4463 42.8869C91.2277 43.6683 91.6667 44.7281 91.6667 45.8332V74.9998C91.6667 79.5957 87.9292 83.3332 83.3333 83.3332Z" fill="black"/>
</svg>
