<svg width="75" height="75" viewBox="0 0 75 75" fill="none" xmlns="http://www.w3.org/2000/svg">
<path d="M32.0312 55.1563L25.3906 48.5156C24.7656 47.8906 24.4531 47.1354 24.4531 46.25C24.4531 45.3646 24.7656 44.6094 25.3906 43.9844C26.0156 43.3594 26.7708 43.0469 27.6563 43.0469C28.5417 43.0469 29.2969 43.3594 29.9219 43.9844L34.2188 48.2813L45.0781 37.4219C45.7031 36.7969 46.4583 36.4844 47.3438 36.4844C48.2292 36.4844 48.9844 36.7969 49.6094 37.4219C50.2344 38.0469 50.5469 38.8021 50.5469 39.6875C50.5469 40.5729 50.2344 41.3281 49.6094 41.9531L36.4062 55.1563C35.8333 55.7292 35.1042 56.0156 34.2188 56.0156C33.3333 56.0156 32.6042 55.7292 32.0312 55.1563ZM15.625 68.75C13.9062 68.75 12.4344 68.1385 11.2094 66.9156C9.98646 65.6906 9.375 64.2188 9.375 62.5V18.75C9.375 17.0313 9.98646 15.5604 11.2094 14.3375C12.4344 13.1125 13.9062 12.5 15.625 12.5H18.75V9.375C18.75 8.48958 19.049 7.74687 19.6469 7.14687C20.2469 6.54896 20.9896 6.25 21.875 6.25C22.7604 6.25 23.5031 6.54896 24.1031 7.14687C24.701 7.74687 25 8.48958 25 9.375V12.5H50V9.375C50 8.48958 50.3 7.74687 50.9 7.14687C51.4979 6.54896 52.2396 6.25 53.125 6.25C54.0104 6.25 54.7521 6.54896 55.35 7.14687C55.95 7.74687 56.25 8.48958 56.25 9.375V12.5H59.375C61.0938 12.5 62.5656 13.1125 63.7906 14.3375C65.0135 15.5604 65.625 17.0313 65.625 18.75V62.5C65.625 64.2188 65.0135 65.6906 63.7906 66.9156C62.5656 68.1385 61.0938 68.75 59.375 68.75H15.625ZM15.625 62.5H59.375V31.25H15.625V62.5Z" fill="#FF7433"/>
</svg>
