<svg width="75" height="75" viewBox="0 0 75 75" fill="none" xmlns="http://www.w3.org/2000/svg">
<g clip-path="url(#clip0_32_42)">
<path d="M25 33.6251H23.1875C20.714 33.5357 18.2486 33.9556 15.9442 34.8587C13.6399 35.7618 11.5457 37.1289 9.79163 38.8751L9.29163 39.4584V56.7084H17.7916V46.9167L18.9375 45.6251L19.4583 45.0209C22.1706 42.2344 25.5474 40.184 29.2708 39.0626C27.4066 37.6441 25.9364 35.7722 25 33.6251Z" fill="#553DF2"/>
<path d="M65.2917 38.8126C63.5377 37.0664 61.4435 35.6993 59.1391 34.7962C56.8347 33.8931 54.3693 33.4732 51.8959 33.5626C51.1373 33.5647 50.3793 33.6064 49.625 33.6876C48.6711 35.702 47.241 37.4538 45.4584 38.7917C49.4333 39.8914 53.0342 42.0519 55.875 45.0417L56.3959 45.6251L57.5209 46.9167V56.7292H65.7292V39.3959L65.2917 38.8126Z" fill="#553DF2"/>
<path d="M23.125 29.5626H23.7708C23.4707 26.986 23.9228 24.3776 25.0725 22.0524C26.2222 19.7271 28.0204 17.7842 30.25 16.4584C29.4418 15.2237 28.3268 14.2201 27.0142 13.5458C25.7015 12.8715 24.2363 12.5497 22.7619 12.6118C21.2876 12.6739 19.8546 13.1179 18.6034 13.9002C17.3521 14.6826 16.3255 15.7765 15.6241 17.0748C14.9226 18.3731 14.5703 19.8313 14.6018 21.3066C14.6332 22.782 15.0473 24.2239 15.8034 25.4911C16.5596 26.7584 17.6319 27.8075 18.9153 28.5358C20.1987 29.2641 21.6493 29.6467 23.125 29.6459V29.5626Z" fill="#553DF2"/>
<path d="M50.8958 28.0001C50.9211 28.479 50.9211 28.9588 50.8958 29.4376C51.2956 29.501 51.6994 29.5358 52.1041 29.5418H52.5C53.9692 29.4634 55.393 29.006 56.633 28.214C57.8729 27.4221 58.8866 26.3225 59.5755 25.0224C60.2643 23.7224 60.6048 22.2661 60.5638 20.7954C60.5227 19.3247 60.1016 17.8897 59.3413 16.63C58.5811 15.3704 57.5076 14.3291 56.2254 13.6075C54.9433 12.8859 53.4961 12.5085 52.0248 12.5122C50.5535 12.5159 49.1083 12.9005 47.8298 13.6286C46.5513 14.3566 45.483 15.4033 44.7291 16.6668C46.6147 17.8979 48.1652 19.5778 49.2415 21.5559C50.3178 23.5339 50.8862 25.7482 50.8958 28.0001Z" fill="#553DF2"/>
<path d="M37.2291 37.3333C42.3723 37.3333 46.5416 33.1639 46.5416 28.0208C46.5416 22.8776 42.3723 18.7083 37.2291 18.7083C32.086 18.7083 27.9166 22.8776 27.9166 28.0208C27.9166 33.1639 32.086 37.3333 37.2291 37.3333Z" fill="#553DF2"/>
<path d="M37.7292 42.2916C35.0085 42.1818 32.2936 42.6235 29.748 43.5902C27.2024 44.5568 24.8787 46.0285 22.9167 47.9166L22.3959 48.5V61.6875C22.404 62.117 22.4967 62.5408 22.6686 62.9345C22.8405 63.3282 23.0884 63.6842 23.3979 63.9822C23.7074 64.2801 24.0727 64.5141 24.4727 64.6709C24.8727 64.8277 25.2997 64.9041 25.7292 64.8958H49.6667C50.0963 64.9041 50.5232 64.8277 50.9232 64.6709C51.3233 64.5141 51.6885 64.2801 51.998 63.9822C52.3076 63.6842 52.5554 63.3282 52.7273 62.9345C52.8992 62.5408 52.9919 62.117 53 61.6875V48.5416L52.5 47.9166C50.5507 46.0227 48.2351 44.5469 45.6952 43.5796C43.1552 42.6124 40.4445 42.1741 37.7292 42.2916Z" fill="#553DF2"/>
</g>
<defs>
<clipPath id="clip0_32_42">
<rect width="75" height="75" fill="white"/>
</clipPath>
</defs>
</svg>
