<svg width="75" height="75" viewBox="0 0 75 75" fill="none" xmlns="http://www.w3.org/2000/svg">
<path d="M50.3906 9.375C55.599 9.375 59.9604 11.3021 63.475 15.1562C66.9917 19.0104 68.75 23.5938 68.75 28.9062C68.75 29.8438 68.6979 30.7677 68.5938 31.6781C68.4896 32.5906 68.3073 33.4896 68.0469 34.375H48.5156L43.2813 26.4062H37.6563L33.4375 39.8438L29.7656 34.375H6.95312C6.69271 33.4896 6.51042 32.5906 6.40625 31.6781C6.30208 30.7677 6.25 29.8698 6.25 28.9844C6.25 23.6198 7.99479 19.0104 11.4844 15.1562C14.974 11.3021 19.3229 9.375 24.5313 9.375C27.0313 9.375 29.3885 9.86979 31.6031 10.8594C33.8156 11.849 35.7813 13.2292 37.5 15C39.1667 13.2292 41.1073 11.849 43.3219 10.8594C45.5344 9.86979 47.8906 9.375 50.3906 9.375ZM37.4219 68.5938L11.5625 42.5781C11.25 42.2656 10.9635 41.9531 10.7031 41.6406C10.4427 41.3281 10.1823 40.9896 9.92188 40.625H26.4062L31.7969 48.6719H37.3438L41.5625 35.1562L45.1563 40.625H65L64.2188 41.5625L63.4375 42.5L37.4219 68.5938Z" fill="#590219"/>
</svg>
