<svg width="75" height="75" viewBox="0 0 75 75" fill="none" xmlns="http://www.w3.org/2000/svg">
<path d="M37.5 6.25C20.2688 6.25 6.25 20.2688 6.25 37.5C6.25 54.7313 20.2688 68.75 37.5 68.75C54.7313 68.75 68.75 54.7313 68.75 37.5C68.75 20.2688 54.7313 6.25 37.5 6.25ZM20.1094 26.4594C20.9496 25.5953 22.0922 25.0906 23.2968 25.0516C24.5015 25.0125 25.6743 25.4421 26.5688 26.25C27.4493 25.4301 28.6131 24.9829 29.8161 25.0022C31.0191 25.0214 32.168 25.5055 33.0219 26.3531C34.8875 28.2031 34.9094 31.1062 33.0781 32.9719L26.6719 39.4813L20.1656 33.075C19.7227 32.6471 19.3694 32.1353 19.1264 31.5694C18.8834 31.0035 18.7555 30.3948 18.7503 29.779C18.745 29.1631 18.8625 28.5524 19.0959 27.9825C19.3292 27.4125 19.6738 26.8947 20.1094 26.4594ZM37.5 56.25C25 56.25 21.875 43.75 21.875 43.75H53.125C53.125 43.75 50 56.25 37.5 56.25ZM54.9531 32.9719L48.5469 39.4813L42.0406 33.075C41.5978 32.6471 41.2446 32.1354 41.0016 31.5696C40.7586 31.0038 40.6306 30.3954 40.625 29.7796C40.6195 29.1639 40.7366 28.5532 40.9694 27.9832C41.2023 27.4132 41.5462 26.8952 41.9813 26.4594C42.8216 25.5943 43.9648 25.0891 45.1702 25.0501C46.3756 25.011 47.5492 25.4412 48.4437 26.25C49.3243 25.4301 50.4881 24.9829 51.6911 25.0022C52.8941 25.0214 54.0429 25.5055 54.8969 26.3531C56.7625 28.2 56.7875 31.1062 54.9531 32.9719Z" fill="#F25C05"/>
</svg>
