<svg width="75" height="75" viewBox="0 0 75 75" fill="none" xmlns="http://www.w3.org/2000/svg">
<g clip-path="url(#clip0_47_1029)">
<path d="M24.9998 33.6251H23.1873C20.7139 33.5357 18.2485 33.9556 15.9441 34.8587C13.6397 35.7618 11.5455 37.1289 9.7915 38.8751L9.2915 39.4584V56.7084H17.7915V46.9167L18.9373 45.6251L19.4582 45.0209C22.1705 42.2344 25.5473 40.184 29.2707 39.0626C27.4065 37.6441 25.9363 35.7722 24.9998 33.6251Z" fill="#A60321"/>
<path d="M65.2918 38.8126C63.5378 37.0664 61.4436 35.6993 59.1392 34.7962C56.8348 33.8931 54.3694 33.4732 51.896 33.5626C51.1374 33.5647 50.3794 33.6064 49.6252 33.6876C48.6712 35.702 47.2411 37.4538 45.4585 38.7917C49.4335 39.8914 53.0343 42.0519 55.8752 45.0417L56.396 45.6251L57.521 46.9167V56.7292H65.7293V39.3959L65.2918 38.8126Z" fill="#A60321"/>
<path d="M23.1252 29.5626H23.7711C23.471 26.986 23.9231 24.3776 25.0728 22.0524C26.2225 19.7271 28.0207 17.7842 30.2502 16.4584C29.442 15.2237 28.327 14.2201 27.0144 13.5458C25.7018 12.8715 24.2365 12.5497 22.7622 12.6118C21.2878 12.6739 19.8548 13.1179 18.6036 13.9002C17.3524 14.6826 16.3258 15.7765 15.6243 17.0748C14.9228 18.3731 14.5706 19.8313 14.602 21.3066C14.6335 22.782 15.0475 24.2239 15.8037 25.4911C16.5598 26.7584 17.6321 27.8075 18.9155 28.5358C20.199 29.2641 21.6495 29.6467 23.1252 29.6459V29.5626Z" fill="#A60321"/>
<path d="M50.8957 28.0001C50.921 28.479 50.921 28.9588 50.8957 29.4376C51.2955 29.501 51.6993 29.5358 52.104 29.5418H52.4998C53.969 29.4634 55.3929 29.006 56.6328 28.214C57.8728 27.4221 58.8865 26.3225 59.5754 25.0224C60.2642 23.7224 60.6047 22.2661 60.5637 20.7954C60.5226 19.3247 60.1015 17.8897 59.3412 16.63C58.5809 15.3704 57.5075 14.3291 56.2253 13.6075C54.9431 12.8859 53.496 12.5085 52.0247 12.5122C50.5534 12.5159 49.1082 12.9005 47.8297 13.6286C46.5511 14.3566 45.4829 15.4033 44.729 16.6668C46.6146 17.8979 48.1651 19.5778 49.2414 21.5559C50.3177 23.5339 50.8861 25.7482 50.8957 28.0001Z" fill="#A60321"/>
<path d="M37.229 37.3333C42.3722 37.3333 46.5415 33.1639 46.5415 28.0208C46.5415 22.8776 42.3722 18.7083 37.229 18.7083C32.0859 18.7083 27.9165 22.8776 27.9165 28.0208C27.9165 33.1639 32.0859 37.3333 37.229 37.3333Z" fill="#A60321"/>
<path d="M37.7293 42.2916C35.0086 42.1818 32.2937 42.6235 29.7482 43.5902C27.2026 44.5568 24.8789 46.0285 22.9168 47.9166L22.396 48.5V61.6875C22.4041 62.117 22.4968 62.5408 22.6687 62.9345C22.8407 63.3282 23.0885 63.6842 23.398 63.9822C23.7076 64.2801 24.0728 64.5141 24.4728 64.6709C24.8728 64.8277 25.2998 64.9041 25.7293 64.8958H49.6668C50.0964 64.9041 50.5234 64.8277 50.9234 64.6709C51.3234 64.5141 51.6886 64.2801 51.9981 63.9822C52.3077 63.6842 52.5555 63.3282 52.7274 62.9345C52.8994 62.5408 52.992 62.117 53.0002 61.6875V48.5416L52.5002 47.9166C50.5508 46.0227 48.2352 44.5469 45.6953 43.5796C43.1554 42.6124 40.4447 42.1741 37.7293 42.2916Z" fill="#A60321"/>
</g>
<defs>
<clipPath id="clip0_47_1029">
<rect width="75" height="75" fill="white"/>
</clipPath>
</defs>
</svg>
